<?xml version="1.0" encoding="UTF-8"?>
<svg version="1.1" xmlns="http://www.w3.org/2000/svg" width="200" height="200">
<path d="M0 0 C66 0 132 0 200 0 C200 66 200 132 200 200 C134 200 68 200 0 200 C0 134 0 68 0 0 Z " fill="#0B1925" transform="translate(0,0)"/>
<path d="M0 0 C1.98 0 3.96 0 6 0 C6.495 3.465 6.495 3.465 7 7 C6.43152344 7.07476562 5.86304688 7.14953125 5.27734375 7.2265625 C-0.7640382 8.25531201 -5.06750541 10.17425179 -9 15 C-11.09592914 18.97619997 -11.11124292 21.88768947 -10.625 26.3125 C-10.51414062 27.38113281 -10.40328125 28.44976562 -10.2890625 29.55078125 C-10.19367188 30.35902344 -10.09828125 31.16726562 -10 32 C-9.34 32 -8.68 32 -8 32 C-7.01 33.175625 -7.01 33.175625 -6 34.375 C-1.97297088 37.89865048 1.63623702 39.12657848 7 39 C10.320245 37.74633817 13.12564124 36.06898287 16 34 C16 33.34 16 32.68 16 32 C14.8553125 32.9590625 14.8553125 32.9590625 13.6875 33.9375 C9.98018612 36.78264786 6.80471436 37.46106748 2.1328125 37.41796875 C-1.80621691 36.64603442 -4.46161589 33.99117695 -7 31 C-9.32921676 27.12313091 -9.56680449 23.43701637 -9 19 C-7.22246532 14.88360391 -4.88962212 12.23446377 -1 10 C4.08430061 9.15828468 7.85571373 9.39664906 12.4375 11.8125 C13.283125 12.534375 14.12875 13.25625 15 14 C15.61875 14.45375 16.2375 14.9075 16.875 15.375 C18.56515618 17.8163367 18.07026847 20.10337766 18 23 C21.41697238 22.8608331 24.83348757 22.71250415 28.25 22.5625 C29.21808594 22.52318359 30.18617188 22.48386719 31.18359375 22.44335938 C32.11816406 22.40146484 33.05273438 22.35957031 34.015625 22.31640625 C35.30388184 22.26141968 35.30388184 22.26141968 36.61816406 22.20532227 C38.84960143 22.01296486 40.84982524 21.61153756 43 21 C43.33 22.32 43.66 23.64 44 25 C42.35 25.33 40.7 25.66 39 26 C39.33 27.65 39.66 29.3 40 31 C40.928125 31.144375 41.85625 31.28875 42.8125 31.4375 C46 32 46 32 49 33 C48.67 34.32 48.34 35.64 48 37 C47.01 36.67 46.02 36.34 45 36 C41.02595368 35.69096401 37.0471337 35.67629429 33.0625 35.625 C31.41604492 35.56892578 31.41604492 35.56892578 29.73632812 35.51171875 C23.38808709 35.25597732 23.38808709 35.25597732 18.24609375 38.5234375 C17.83488281 39.34070313 17.42367187 40.15796875 17 41 C17.78375 40.835 18.5675 40.67 19.375 40.5 C22 40 22 40 24 40 C24.33 39.67 24.66 39.34 25 39 C27.01964199 38.92755947 29.04167124 38.91622812 31.0625 38.9375 C32.16722656 38.94652344 33.27195313 38.95554688 34.41015625 38.96484375 C35.26480469 38.97644531 36.11945313 38.98804688 37 39 C37 38.34 37 37.68 37 37 C38.32 37 39.64 37 41 37 C40.67 38.65 40.34 40.3 40 42 C36.04 41.67 32.08 41.34 28 41 C28.33 41.99 28.66 42.98 29 44 C27.33054584 46.04878336 26.46332981 46.92455259 23.81103516 47.35644531 C22.97878418 47.34709961 22.1465332 47.33775391 21.2890625 47.328125 C20.37382812 47.32296875 19.45859375 47.3178125 18.515625 47.3125 C17.08476562 47.2815625 17.08476562 47.2815625 15.625 47.25 C14.20574219 47.24226563 14.20574219 47.24226563 12.7578125 47.234375 C8.3561952 47.18491863 4.30974376 46.95942991 0 46 C0 44.35 0 42.7 0 41 C-1.32 41 -2.64 41 -4 41 C-4 42.32 -4 43.64 -4 45 C-9.75 45.125 -9.75 45.125 -12 44 C-12 42.68 -12 41.36 -12 40 C-14.31 40 -16.62 40 -19 40 C-19.4125 40.94875 -19.825 41.8975 -20.25 42.875 C-22.51595959 46.92135641 -24.05407627 47.42148213 -28.3125 48.6875 C-31 49 -31 49 -34.125 48.5 C-39.19484244 47.84582678 -44.02423035 47.67682559 -49 49 C-51.49540371 51.86615486 -51.49540371 51.86615486 -53 55 C-55.25 55.875 -55.25 55.875 -57 56 C-57.79953138 52.71303767 -58.09658936 51.28976808 -57 48 C-61.62 48.33 -66.24 48.66 -71 49 C-71.33 51.31 -71.66 53.62 -72 56 C-72.66 56 -73.32 56 -74 56 C-74 55.34 -74 54.68 -74 54 C-75.65 53.67 -77.3 53.34 -79 53 C-79 51.35 -79 49.7 -79 48 C-81.97 47.67 -84.94 47.34 -88 47 C-88.33 44.36 -88.66 41.72 -89 39 C-89.99 39 -90.98 39 -92 39 C-91.67 41.64 -91.34 44.28 -91 47 C-93.31 47 -95.62 47 -98 47 C-98 43.7 -98 40.4 -98 37 C-100.97 37.495 -100.97 37.495 -104 38 C-104.33 40.97 -104.66 43.94 -105 47 C-106.98 47 -108.96 47 -111 47 C-110.979375 45.845 -110.95875 44.69 -110.9375 43.5 C-110.92992231 39.25649453 -111.40025235 35.19823356 -112 31 C-110.68 31.33 -109.36 31.66 -108 32 C-108.33 33.98 -108.66 35.96 -109 38 C-108.01 38 -107.02 38 -106 38 C-106 35.69 -106 33.38 -106 31 C-103.03 30.67 -100.06 30.34 -97 30 C-97 21.09 -97 12.18 -97 3 C-95.35 3 -93.7 3 -92 3 C-91.97494385 3.62044189 -91.9498877 4.24088379 -91.92407227 4.88012695 C-91.80803279 7.69112397 -91.68534241 10.50179241 -91.5625 13.3125 C-91.52318359 14.28896484 -91.48386719 15.26542969 -91.44335938 16.27148438 C-91.40146484 17.20927734 -91.35957031 18.14707031 -91.31640625 19.11328125 C-91.27974854 19.97735596 -91.24309082 20.84143066 -91.20532227 21.73168945 C-91.07252646 24.1647826 -91.07252646 24.1647826 -90 27 C-89.34 27 -88.68 27 -88 27 C-88 18.75 -88 10.5 -88 2 C-77 2 -77 2 -74.3125 4.5 C-73.879375 5.325 -73.44625 6.15 -73 7 C-72.67 6.01 -72.34 5.02 -72 4 C-68.6404324 2.22689488 -65.78086678 1.50251753 -62 2 C-60.36987305 3.1730957 -60.36987305 3.1730957 -59 5 C-58.65942383 7.54370117 -58.65942383 7.54370117 -58.70703125 10.54296875 C-58.7215332 12.15268555 -58.7215332 12.15268555 -58.73632812 13.79492188 C-58.76146484 14.91447266 -58.78660156 16.03402344 -58.8125 17.1875 C-58.83280273 18.88422852 -58.83280273 18.88422852 -58.85351562 20.61523438 C-58.88890042 23.41063317 -58.93827052 26.20507892 -59 29 C-60.32 29 -61.64 29 -63 29 C-63 21.74 -63 14.48 -63 7 C-63.99 7 -64.98 7 -66 7 C-65.505 18.88 -65.505 18.88 -65 31 C-64.34 31 -63.68 31 -63 31 C-62.505 31.99 -62.505 31.99 -62 33 C-61.34 33 -60.68 33 -60 33 C-60 32.34 -60 31.68 -60 31 C-57.125 30.875 -57.125 30.875 -54 31 C-53.34 31.66 -52.68 32.32 -52 33 C-52.375 35.125 -52.375 35.125 -53 37 C-52.34 36.67 -51.68 36.34 -51 36 C-50.53101037 33.1840151 -50.53101037 33.1840151 -50.375 29.9375 C-50.30023438 28.83277344 -50.22546875 27.72804688 -50.1484375 26.58984375 C-50.09945312 25.73519531 -50.05046875 24.88054687 -50 24 C-50.495 26.475 -50.495 26.475 -51 29 C-52.32 29 -53.64 29 -55 29 C-55 20.42 -55 11.84 -55 3 C-52.525 3.495 -52.525 3.495 -50 4 C-49.505 4.99 -49.505 4.99 -49 6 C-48.34 4.68 -47.68 3.36 -47 2 C-44.36 2 -41.72 2 -39 2 C-39 2.99 -39 3.98 -39 5 C-38.34 4.505 -37.68 4.01 -37 3.5 C-32.95220076 1.47610038 -30.50429853 1.63675012 -26 2 C-25.01 2.66 -24.02 3.32 -23 4 C-22.48828125 6.8203125 -22.48828125 6.8203125 -22.3125 10.125 C-22.24675781 11.22070312 -22.18101563 12.31640625 -22.11328125 13.4453125 C-22.05720703 14.70988281 -22.05720703 14.70988281 -22 16 C-21.67 16 -21.34 16 -21 16 C-20.505 21.94 -20.505 21.94 -20 28 C-18.35 28.66 -16.7 29.32 -15 30 C-15 29.01 -15 28.02 -15 27 C-16.65 27 -18.3 27 -20 27 C-20 24.69 -20 22.38 -20 20 C-18.35 20 -16.7 20 -15 20 C-15 18.68 -15 17.36 -15 16 C-15.66 16 -16.32 16 -17 16 C-17 14.35 -17 12.7 -17 11 C-13.98968256 10.06576355 -13.13349732 9.95550089 -10 11 C-10 8.69 -10 6.38 -10 4 C-7.03 3.505 -7.03 3.505 -4 3 C-4 3.66 -4 4.32 -4 5 C-2.68 5 -1.36 5 0 5 C0 3.35 0 1.7 0 0 Z " fill="#072530" transform="translate(131,72)"/>
<path d="M0 0 C11 0 11 0 13.6875 2.5 C14.120625 3.325 14.55375 4.15 15 5 C15.33 4.01 15.66 3.02 16 2 C19.3595676 0.22689488 22.21913322 -0.49748247 26 0 C27.63012695 1.1730957 27.63012695 1.1730957 29 3 C29.34057617 5.54370117 29.34057617 5.54370117 29.29296875 8.54296875 C29.2784668 10.15268555 29.2784668 10.15268555 29.26367188 11.79492188 C29.23853516 12.91447266 29.21339844 14.03402344 29.1875 15.1875 C29.16719727 16.88422852 29.16719727 16.88422852 29.14648438 18.61523438 C29.11109958 21.41063317 29.06172948 24.20507892 29 27 C27.68 27 26.36 27 25 27 C25 19.74 25 12.48 25 5 C24.01 5 23.02 5 22 5 C22.495 16.88 22.495 16.88 23 29 C23.66 29 24.32 29 25 29 C25.495 29.99 25.495 29.99 26 31 C26.66 31 27.32 31 28 31 C28 30.34 28 29.68 28 29 C30.875 28.875 30.875 28.875 34 29 C34.66 29.66 35.32 30.32 36 31 C35.625 33.125 35.625 33.125 35 35 C41.98059091 35.95812032 48.97326485 36.49656013 56 37 C56 38.32 56 39.64 56 41 C57.32 41 58.64 41 60 41 C60 40.01 60 39.02 60 38 C61.32 38 62.64 38 64 38 C64 39.32 64 40.64 64 42 C63.34 42 62.68 42 62 42 C61.67 42.99 61.34 43.98 61 45 C60.35450195 45.02916504 59.70900391 45.05833008 59.04394531 45.08837891 C56.11025438 45.23764797 53.18104642 45.43081817 50.25 45.625 C48.72632812 45.69267578 48.72632812 45.69267578 47.171875 45.76171875 C44.32408007 45.96780917 41.74732268 46.21722125 39 47 C36.37089583 49.85566913 36.37089583 49.85566913 35 53 C32.75 53.875 32.75 53.875 31 54 C30.20046862 50.71303767 29.90341064 49.28976808 31 46 C26.38 46.33 21.76 46.66 17 47 C16.67 49.31 16.34 51.62 16 54 C15.34 54 14.68 54 14 54 C14 53.34 14 52.68 14 52 C12.35 51.67 10.7 51.34 9 51 C9 49.35 9 47.7 9 46 C6.03 45.67 3.06 45.34 0 45 C-0.33 42.36 -0.66 39.72 -1 37 C-1.99 37 -2.98 37 -4 37 C-3.67 39.64 -3.34 42.28 -3 45 C-5.31 45 -7.62 45 -10 45 C-10 41.7 -10 38.4 -10 35 C-12.97 35.495 -12.97 35.495 -16 36 C-16.33 38.97 -16.66 41.94 -17 45 C-18.98 45 -20.96 45 -23 45 C-22.979375 43.845 -22.95875 42.69 -22.9375 41.5 C-22.92992231 37.25649453 -23.40025235 33.19823356 -24 29 C-22.68 29.33 -21.36 29.66 -20 30 C-20.33 31.98 -20.66 33.96 -21 36 C-20.01 36 -19.02 36 -18 36 C-18 33.69 -18 31.38 -18 29 C-15.03 28.67 -12.06 28.34 -9 28 C-9 19.09 -9 10.18 -9 1 C-7.35 1 -5.7 1 -4 1 C-3.97494385 1.62044189 -3.9498877 2.24088379 -3.92407227 2.88012695 C-3.80803279 5.69112397 -3.68534241 8.50179241 -3.5625 11.3125 C-3.52318359 12.28896484 -3.48386719 13.26542969 -3.44335938 14.27148438 C-3.40146484 15.20927734 -3.35957031 16.14707031 -3.31640625 17.11328125 C-3.27974854 17.97735596 -3.24309082 18.84143066 -3.20532227 19.73168945 C-3.07252646 22.1647826 -3.07252646 22.1647826 -2 25 C-1.34 25 -0.68 25 0 25 C0 16.75 0 8.5 0 0 Z " fill="#09242F" transform="translate(43,74)"/>
<path d="M0 0 C0.82773926 -0.00095673 1.65547852 -0.00191345 2.50830078 -0.00289917 C4.25992916 -0.00357838 6.01156008 -0.00174215 7.76318359 0.00244141 C10.40077622 0.00773874 13.03819428 0.00251604 15.67578125 -0.00390625 C24.98252779 -0.00720277 34.16932866 0.20472691 43.4375 1.1328125 C43.4375 2.4528125 43.4375 3.7728125 43.4375 5.1328125 C44.7575 5.1328125 46.0775 5.1328125 47.4375 5.1328125 C47.4375 4.1428125 47.4375 3.1528125 47.4375 2.1328125 C48.7575 2.1328125 50.0775 2.1328125 51.4375 2.1328125 C51.4375 3.4528125 51.4375 4.7728125 51.4375 6.1328125 C50.7775 6.1328125 50.1175 6.1328125 49.4375 6.1328125 C49.1075 7.1228125 48.7775 8.1128125 48.4375 9.1328125 C47.79200195 9.16197754 47.14650391 9.19114258 46.48144531 9.22119141 C43.54775438 9.37046047 40.61854642 9.56363067 37.6875 9.7578125 C36.67171875 9.80292969 35.6559375 9.84804687 34.609375 9.89453125 C31.76158007 10.10062167 29.18482268 10.35003375 26.4375 11.1328125 C23.80839583 13.98848163 23.80839583 13.98848163 22.4375 17.1328125 C20.1875 18.0078125 20.1875 18.0078125 18.4375 18.1328125 C17.63796862 14.84585017 17.34091064 13.42258058 18.4375 10.1328125 C13.8175 10.4628125 9.1975 10.7928125 4.4375 11.1328125 C4.1075 13.4428125 3.7775 15.7528125 3.4375 18.1328125 C2.7775 18.1328125 2.1175 18.1328125 1.4375 18.1328125 C1.4375 17.4728125 1.4375 16.8128125 1.4375 16.1328125 C-0.2125 15.8028125 -1.8625 15.4728125 -3.5625 15.1328125 C-3.5625 13.4828125 -3.5625 11.8328125 -3.5625 10.1328125 C-6.5325 9.8028125 -9.5025 9.4728125 -12.5625 9.1328125 C-12.8925 6.4928125 -13.2225 3.8528125 -13.5625 1.1328125 C-9.05052904 0.00369849 -4.62006277 -0.01189091 0 0 Z " fill="#0C2B3A" transform="translate(55.5625,109.8671875)"/>
<path d="M0 0 C3.4375 1.8125 3.4375 1.8125 6 4 C6.598125 4.433125 7.19625 4.86625 7.8125 5.3125 C10.37445019 8.95316606 10.10319141 13.18921039 9.5625 17.4375 C9.376875 18.283125 9.19125 19.12875 9 20 C8.34 20 7.68 20 7 20 C6.690625 20.8971875 6.690625 20.8971875 6.375 21.8125 C4.39531636 24.9619967 2.46892258 25.71521386 -1 27 C-7.47120419 27.92445774 -7.47120419 27.92445774 -10.99609375 25.79296875 C-14.16831816 23.18791959 -16.44652903 20.85054653 -18 17 C-18.42537199 11.64031296 -18.48854141 8.33060313 -15 4 C-10.71333406 -0.80626182 -6.07460068 -0.98322864 0 0 Z " fill="#DF3C47" transform="translate(140,82)"/>
<path d="M0 0 C2.0625 0.4375 2.0625 0.4375 4 1 C3.67 2.32 3.34 3.64 3 5 C1.68 5 0.36 5 -1 5 C-0.505 7.475 -0.505 7.475 0 10 C0.928125 10.144375 1.85625 10.28875 2.8125 10.4375 C6 11 6 11 9 12 C8.67 13.32 8.34 14.64 8 16 C7.01 15.67 6.02 15.34 5 15 C1.02595368 14.69096401 -2.9528663 14.67629429 -6.9375 14.625 C-8.58395508 14.56892578 -8.58395508 14.56892578 -10.26367188 14.51171875 C-16.61191291 14.25597732 -16.61191291 14.25597732 -21.75390625 17.5234375 C-22.16511719 18.34070313 -22.57632813 19.15796875 -23 20 C-21.824375 19.7525 -21.824375 19.7525 -20.625 19.5 C-18 19 -18 19 -16 19 C-15.67 18.67 -15.34 18.34 -15 18 C-12.98035801 17.92755947 -10.95832876 17.91622812 -8.9375 17.9375 C-7.83277344 17.94652344 -6.72804687 17.95554687 -5.58984375 17.96484375 C-4.73519531 17.97644531 -3.88054687 17.98804687 -3 18 C-3 17.34 -3 16.68 -3 16 C-1.68 16 -0.36 16 1 16 C0.505 18.475 0.505 18.475 0 21 C-3.96 20.67 -7.92 20.34 -12 20 C-11.67 20.99 -11.34 21.98 -11 23 C-12.69636171 25.10407096 -13.54981464 25.93240678 -16.26831055 26.34057617 C-17.13238525 26.32486572 -17.99645996 26.30915527 -18.88671875 26.29296875 C-19.82451172 26.28330078 -20.76230469 26.27363281 -21.72851562 26.26367188 C-23.19321289 26.2259668 -23.19321289 26.2259668 -24.6875 26.1875 C-25.67556641 26.17396484 -26.66363281 26.16042969 -27.68164062 26.14648438 C-30.12164231 26.11112203 -32.56054719 26.06177033 -35 26 C-32.83088235 18.02205882 -32.83088235 18.02205882 -30 16 C-28.989375 15.525625 -27.97875 15.05125 -26.9375 14.5625 C-24.00039241 13.26372864 -24.00039241 13.26372864 -22.625 11.1875 C-21.83172373 8.41103305 -21.93614109 5.87365073 -22 3 C-20.41995647 1.41995647 -18.7531482 1.79906238 -16.5625 1.71875 C-15.66789062 1.68136719 -14.77328125 1.64398438 -13.8515625 1.60546875 C-11.95052083 1.53515625 -10.04947917 1.46484375 -8.1484375 1.39453125 C-7.25382812 1.35714844 -6.35921875 1.31976563 -5.4375 1.28125 C-4.61121094 1.25095703 -3.78492188 1.22066406 -2.93359375 1.18945312 C-0.99438844 1.20598341 -0.99438844 1.20598341 0 0 Z " fill="#102732" transform="translate(171,93)"/>
<path d="M0 0 C1.98 0 3.96 0 6 0 C6.33 2.31 6.66 4.62 7 7 C6.43152344 7.07476562 5.86304688 7.14953125 5.27734375 7.2265625 C-0.7640382 8.25531201 -5.06750541 10.17425179 -9 15 C-11.09592914 18.97619997 -11.11124292 21.88768947 -10.625 26.3125 C-10.51414062 27.38113281 -10.40328125 28.44976562 -10.2890625 29.55078125 C-10.19367188 30.35902344 -10.09828125 31.16726562 -10 32 C-9.34 32 -8.68 32 -8 32 C-7.34 32.78375 -6.68 33.5675 -6 34.375 C-1.96931226 37.90185177 1.80100833 38.32362633 7 39 C6.67 41.31 6.34 43.62 6 46 C4.02 46 2.04 46 0 46 C0 44.35 0 42.7 0 41 C-1.32 41 -2.64 41 -4 41 C-4.33 41.99 -4.66 42.98 -5 44 C-7.16874252 43.49396008 -8.99967627 43.00016187 -11 42 C-10.505 39.03 -10.505 39.03 -10 36 C-12.475 36.495 -12.475 36.495 -15 37 C-15.495 35.515 -15.495 35.515 -16 34 C-16.66 34 -17.32 34 -18 34 C-17.67 33.01 -17.34 32.02 -17 31 C-16.34 31 -15.68 31 -15 31 C-15 29.68 -15 28.36 -15 27 C-16.65 27 -18.3 27 -20 27 C-20 24.69 -20 22.38 -20 20 C-18.35 20 -16.7 20 -15 20 C-15 18.68 -15 17.36 -15 16 C-15.66 16 -16.32 16 -17 16 C-17 14.35 -17 12.7 -17 11 C-13.98968256 10.06576355 -13.13349732 9.95550089 -10 11 C-10 8.69 -10 6.38 -10 4 C-8.02 3.67 -6.04 3.34 -4 3 C-4 3.66 -4 4.32 -4 5 C-2.68 5 -1.36 5 0 5 C0 3.35 0 1.7 0 0 Z " fill="#BF4550" transform="translate(131,72)"/>
<path d="M0 0 C2.475 0.495 2.475 0.495 5 1 C6.32 5.95 7.64 10.9 9 16 C9.33 10.72 9.66 5.44 10 0 C11.65 0 13.3 0 15 0 C15 8.58 15 17.16 15 26 C12.03 26 9.06 26 6 26 C5.67 24.35 5.34 22.7 5 21 C4.67 22.65 4.34 24.3 4 26 C2.68 26 1.36 26 0 26 C0 17.42 0 8.84 0 0 Z " fill="#1B6161" transform="translate(76,75)"/>
<path d="M0 0 C0.556875 0.0721875 1.11375 0.144375 1.6875 0.21875 C5.58373018 0.69261583 9.38458398 1.05917764 13.3125 1 C16.26489216 1 18.23581791 1.21023369 21 2 C22.32 2 23.64 2 25 2 C25.99 3.485 25.99 3.485 27 5 C28.66014616 5.36442233 30.32706064 5.69972883 32 6 C32.495 6.99 32.495 6.99 33 8 C36.02934491 8.65772428 36.02934491 8.65772428 39 9 C38.67 9.66 38.34 10.32 38 11 C35.69 11 33.38 11 31 11 C30.38125 12.423125 30.38125 12.423125 29.75 13.875 C27.42060753 18.03462941 25.78183906 18.49090313 21.375 19.75 C20.199375 19.87375 20.199375 19.87375 19 20 C18.34 19.34 17.68 18.68 17 18 C17.969375 17.87625 18.93875 17.7525 19.9375 17.625 C20.948125 17.41875 21.95875 17.2125 23 17 C23.33 16.34 23.66 15.68 24 15 C24.66 15 25.32 15 26 15 C26 13.68 26 12.36 26 11 C24.68 11 23.36 11 22 11 C22 11.99 22 12.98 22 14 C20.68 14 19.36 14 18 14 C18 12.68 18 11.36 18 10 C16.08574219 10.03480469 16.08574219 10.03480469 14.1328125 10.0703125 C12.4635475 10.08906829 10.7942762 10.10726869 9.125 10.125 C7.86236328 10.15013672 7.86236328 10.15013672 6.57421875 10.17578125 C5.76855469 10.18222656 4.96289062 10.18867187 4.1328125 10.1953125 C3.38918457 10.20578613 2.64555664 10.21625977 1.87939453 10.22705078 C0 10 0 10 -2 8 C-1.67 7.67 -1.34 7.34 -1 7 C-0.63239269 4.67182036 -0.29758419 2.3381615 0 0 Z " fill="#142A37" transform="translate(81,101)"/>
<path d="M0 0 C2.64526348 2.0611359 3.86235616 3.2223863 4.45410156 6.56542969 C4.4331543 7.50805664 4.41220703 8.45068359 4.390625 9.421875 C4.37773438 10.44667969 4.36484375 11.47148438 4.3515625 12.52734375 C4.31804687 13.59082031 4.28453125 14.65429688 4.25 15.75 C4.23195313 16.82894531 4.21390625 17.90789062 4.1953125 19.01953125 C4.14821415 21.68058788 4.082456 24.33984254 4 27 C2.35 27 0.7 27 -1 27 C-1 19.74 -1 12.48 -1 5 C-1.99 5 -2.98 5 -4 5 C-4 12.26 -4 19.52 -4 27 C-5.65 27 -7.3 27 -9 27 C-9.08696177 23.06263877 -9.14037835 19.12552372 -9.1875 15.1875 C-9.21263672 14.06794922 -9.23777344 12.94839844 -9.26367188 11.79492188 C-9.27333984 10.72177734 -9.28300781 9.64863281 -9.29296875 8.54296875 C-9.3086792 7.55321045 -9.32438965 6.56345215 -9.34057617 5.54370117 C-9 3 -9 3 -7.6652832 1.1809082 C-5.03427185 -0.68483024 -3.12955431 -0.44707919 0 0 Z " fill="#1D6161" transform="translate(103,74)"/>
<path d="M0 0 C3.96 0 7.92 0 12 0 C11.67 0.66 11.34 1.32 11 2 C9.68 1.67 8.36 1.34 7 1 C7 9.58 7 18.16 7 27 C8.32 27 9.64 27 11 27 C11 25.02 11 23.04 11 21 C11.66 21.33 12.32 21.66 13 22 C12.94008594 23.95918968 12.85132862 25.91751529 12.75 27.875 C12.68039063 29.51082031 12.68039063 29.51082031 12.609375 31.1796875 C12 34 12 34 9.953125 35.3828125 C9.30859375 35.58648437 8.6640625 35.79015625 8 36 C8.33 34.35 8.66 32.7 9 31 C6.69 30.34 4.38 29.68 2 29 C2 29.66 2 30.32 2 31 C1.34 31 0.68 31 0 31 C-0.33 31.66 -0.66 32.32 -1 33 C-1 31.68 -1 30.36 -1 29 C-1.66 29 -2.32 29 -3 29 C-4.25248502 26.49502996 -4.11374406 24.79146726 -4.09765625 21.9921875 C-4.09443359 21.00605469 -4.09121094 20.01992187 -4.08789062 19.00390625 C-4.07951172 17.97136719 -4.07113281 16.93882813 -4.0625 15.875 C-4.05798828 14.83472656 -4.05347656 13.79445313 -4.04882812 12.72265625 C-4.03701952 10.14838038 -4.02055075 7.57421854 -4 5 C-3.01 5 -2.02 5 -1 5 C-1 12.26 -1 19.52 -1 27 C0.32 27 1.64 27 3 27 C2.8902743 23.06191772 2.75960869 19.12480411 2.625 15.1875 C2.5940625 14.06794922 2.563125 12.94839844 2.53125 11.79492188 C2.49257812 10.72177734 2.45390625 9.64863281 2.4140625 8.54296875 C2.3826416 7.55321045 2.3512207 6.56345215 2.31884766 5.54370117 C2.16226567 2.75924906 2.16226567 2.75924906 0 0 Z " fill="#06232F" transform="translate(69,74)"/>
<path d="M0 0 C1.6340332 1.17700195 1.6340332 1.17700195 3 3 C3.34057617 5.54370117 3.34057617 5.54370117 3.29296875 8.54296875 C3.28330078 9.61611328 3.27363281 10.68925781 3.26367188 11.79492188 C3.23853516 12.91447266 3.21339844 14.03402344 3.1875 15.1875 C3.17396484 16.31865234 3.16042969 17.44980469 3.14648438 18.61523438 C3.11109958 21.41063317 3.06172948 24.20507892 3 27 C1.68 27 0.36 27 -1 27 C-1 19.74 -1 12.48 -1 5 C-1.99 5 -2.98 5 -4 5 C-4 12.26 -4 19.52 -4 27 C-5.65 27 -7.3 27 -9 27 C-9.11594584 23.06274674 -9.18716464 19.12593077 -9.25 15.1875 C-9.28351562 14.06794922 -9.31703125 12.94839844 -9.3515625 11.79492188 C-9.36445312 10.72177734 -9.37734375 9.64863281 -9.390625 8.54296875 C-9.41157227 7.55321045 -9.43251953 6.56345215 -9.45410156 5.54370117 C-9 3 -9 3 -7.13574219 1.17700195 C-4.49175939 -0.28009008 -2.97664624 -0.45794558 0 0 Z " fill="#1D6764" transform="translate(69,74)"/>
<path d="M0 0 C0.99 0.33 1.98 0.66 3 1 C2.67 2.32 2.34 3.64 2 5 C1.01 4.67 0.02 4.34 -1 4 C-4.97404632 3.69096401 -8.9528663 3.67629429 -12.9375 3.625 C-14.58395508 3.56892578 -14.58395508 3.56892578 -16.26367188 3.51171875 C-22.61191291 3.25597732 -22.61191291 3.25597732 -27.75390625 6.5234375 C-28.16511719 7.34070313 -28.57632813 8.15796875 -29 9 C-28.21625 8.835 -27.4325 8.67 -26.625 8.5 C-24 8 -24 8 -22 8 C-21.67 7.67 -21.34 7.34 -21 7 C-18.98035801 6.92755947 -16.95832876 6.91622812 -14.9375 6.9375 C-13.83277344 6.94652344 -12.72804687 6.95554687 -11.58984375 6.96484375 C-10.73519531 6.97644531 -9.88054687 6.98804687 -9 7 C-9 6.34 -9 5.68 -9 5 C-7.68 5 -6.36 5 -5 5 C-5.33 6.65 -5.66 8.3 -6 10 C-9.96 9.67 -13.92 9.34 -18 9 C-17.67 9.99 -17.34 10.98 -17 12 C-18.69636171 14.10407096 -19.54981464 14.93240678 -22.26831055 15.34057617 C-23.13238525 15.32486572 -23.99645996 15.30915527 -24.88671875 15.29296875 C-25.82451172 15.28330078 -26.76230469 15.27363281 -27.72851562 15.26367188 C-28.70498047 15.23853516 -29.68144531 15.21339844 -30.6875 15.1875 C-32.16959961 15.16719727 -32.16959961 15.16719727 -33.68164062 15.14648438 C-36.12164231 15.11112203 -38.56054719 15.06177033 -41 15 C-40.34 12.69 -39.68 10.38 -39 8 C-37.07942708 7.90234375 -35.15885417 7.8046875 -33.23828125 7.70703125 C-30.73550725 7.14727955 -30.73550725 7.14727955 -29.02734375 4.49609375 C-24.26168288 0.56672949 -19.2419463 1.2567401 -13.25 1.25 C-10.963489 1.21700928 -8.67702215 1.18073723 -6.390625 1.140625 C-5.38032227 1.13579102 -4.37001953 1.13095703 -3.32910156 1.12597656 C-1.03953023 1.2621584 -1.03953023 1.2621584 0 0 Z " fill="#1A3B45" transform="translate(177,104)"/>
<path d="M0 0 C3.63 0 7.26 0 11 0 C12 1 12 1 12.09765625 4.37890625 C12.09098369 5.77347077 12.07902532 7.16801743 12.0625 8.5625 C12.05798828 9.27341797 12.05347656 9.98433594 12.04882812 10.71679688 C12.03700864 12.47790013 12.01907263 14.23896036 12 16 C10.68 16 9.36 16 8 16 C7.95101562 15.21753906 7.90203125 14.43507813 7.8515625 13.62890625 C7.77679688 12.61699219 7.70203125 11.60507813 7.625 10.5625 C7.52058594 9.04849609 7.52058594 9.04849609 7.4140625 7.50390625 C7.27742188 6.67761719 7.14078125 5.85132812 7 5 C6.34 4.67 5.68 4.34 5 4 C5.08702126 6.27155498 5.19519522 8.54230743 5.3125 10.8125 C5.37050781 12.07707031 5.42851563 13.34164062 5.48828125 14.64453125 C5.73667984 17.92672296 5.73667984 17.92672296 7.35546875 19.94921875 C9.0960739 21.26921438 9.0960739 21.26921438 12 21 C12 22.65 12 24.3 12 26 C10.35 26 8.7 26 7 26 C7 25.01 7 24.02 7 23 C6.34 23 5.68 23 5 23 C5 23.99 5 24.98 5 26 C3.35 26 1.7 26 0 26 C0 17.42 0 8.84 0 0 Z " fill="#1C6362" transform="translate(44,75)"/>
<path d="M0 0 C5.28 0 10.56 0 16 0 C16 1.98 16 3.96 16 6 C14.35 5.67 12.7 5.34 11 5 C11 12.26 11 19.52 11 27 C9.02 27 7.04 27 5 27 C5 19.74 5 12.48 5 5 C3.35 5.33 1.7 5.66 0 6 C0 4.02 0 2.04 0 0 Z " fill="#1B5456" transform="translate(15,74)"/>
<path d="M0 0 C1.01416992 -0.01740234 1.01416992 -0.01740234 2.04882812 -0.03515625 C4.01171875 -0.0234375 4.01171875 -0.0234375 7.3125 0.375 C7.9725 1.365 8.6325 2.355 9.3125 3.375 C8.3225 3.375 7.3325 3.375 6.3125 3.375 C5.9825 4.035 5.6525 4.695 5.3125 5.375 C4.75304687 5.21773438 4.19359375 5.06046875 3.6171875 4.8984375 C-1.01583075 3.84619268 -6.30104748 3.13634027 -10.63671875 5.38671875 C-13.28121852 7.51896675 -14.60869815 9.13859445 -15.6875 12.375 C-16.18921564 18.49593081 -15.77583623 21.4917095 -11.6875 26.375 C-9.03134464 29.22088075 -7.78447891 29.36561494 -3.8125 29.75 C0.14324664 29.59501739 2.95286412 28.53476593 6.3125 26.375 C6.9725 25.385 7.6325 24.395 8.3125 23.375 C10.9375 23.1875 10.9375 23.1875 13.3125 23.375 C11.9925 23.705 10.6725 24.035 9.3125 24.375 C9.27125 24.973125 9.23 25.57125 9.1875 26.1875 C8.3125 28.375 8.3125 28.375 5.375 30.125 C2.3125 31.375 2.3125 31.375 0.3125 31.375 C-0.0175 32.035 -0.3475 32.695 -0.6875 33.375 C-11.56778169 31.7693662 -11.56778169 31.7693662 -15.6875 27.375 C-15.6875 26.715 -15.6875 26.055 -15.6875 25.375 C-16.3475 25.375 -17.0075 25.375 -17.6875 25.375 C-19.9389655 20.20987326 -20.29442796 15.74699754 -18.6875 10.375 C-14.16046217 2.93977015 -8.69217432 -0.05108036 0 0 Z " fill="#4D1D29" transform="translate(138.6875,78.625)"/>
<path d="M0 0 C7.25867508 -0.61514196 7.25867508 -0.61514196 10.9375 2.4375 C11.618125 3.283125 12.29875 4.12875 13 5 C14.04871253 6.27305556 14.04871253 6.27305556 16.40844727 6.11352539 C17.45057373 6.10828857 18.4927002 6.10305176 19.56640625 6.09765625 C20.69111328 6.09443359 21.81582031 6.09121094 22.97460938 6.08789062 C24.15861328 6.07951172 25.34261719 6.07113281 26.5625 6.0625 C27.75037109 6.05798828 28.93824219 6.05347656 30.16210938 6.04882812 C33.10812226 6.03699675 36.05403681 6.02051287 39 6 C39 6.99 39 7.98 39 9 C39.66 9.33 40.32 9.66 41 10 C32.42 10 23.84 10 15 10 C18.70152678 10.92538169 19.63458162 11.08174162 23 10 C23.33 11.32 23.66 12.64 24 14 C22.0625 14.5625 22.0625 14.5625 20 15 C19.67 14.67 19.34 14.34 19 14 C17.7625 13.9175 16.525 13.835 15.25 13.75 C11.76975685 13.35494537 10.90890525 12.93121417 7.9375 10.6875 C6 8 6 8 6.125 5.75 C7 4 7 4 8 3 C5.36 2.67 2.72 2.34 0 2 C0 1.34 0 0.68 0 0 Z " fill="#203C41" transform="translate(138,77)"/>
<path d="M0 0 C4.62 0 9.24 0 14 0 C14 1.32 14 2.64 14 4 C15.32 4 16.64 4 18 4 C18 3.01 18 2.02 18 1 C19.32 1 20.64 1 22 1 C22 2.32 22 3.64 22 5 C21.34 5 20.68 5 20 5 C19.67 5.99 19.34 6.98 19 8 C12.78675502 8.73030908 7.15901243 9.23180249 1 8 C0.67 5.36 0.34 2.72 0 0 Z " fill="#103542" transform="translate(85,111)"/>
<path d="M0 0 C0.33 0.99 0.66 1.98 1 3 C0.01 3 -0.98 3 -2 3 C-2 3.66 -2 4.32 -2 5 C-1.01 5 -0.02 5 1 5 C1 5.66 1 6.32 1 7 C-0.0725 6.979375 -1.145 6.95875 -2.25 6.9375 C-6.08066558 6.85984566 -6.08066558 6.85984566 -10 8 C-10.33 10.97 -10.66 13.94 -11 17 C-12.98 17 -14.96 17 -17 17 C-16.979375 15.845 -16.95875 14.69 -16.9375 13.5 C-16.92992231 9.25649453 -17.40025235 5.19823356 -18 1 C-16.68 1.33 -15.36 1.66 -14 2 C-14.33 3.98 -14.66 5.96 -15 8 C-14.01 8 -13.02 8 -12 8 C-12 5.69 -12 3.38 -12 1 C-7.95858806 0.36605303 -4.0934693 -0.12404452 0 0 Z " fill="#442935" transform="translate(37,102)"/>
<path d="M0 0 C2.97 0.495 2.97 0.495 6 1 C6.33 2.65 6.66 4.3 7 6 C7.33 4.35 7.66 2.7 8 1 C9.98 1 11.96 1 14 1 C14.33 2.32 14.66 3.64 15 5 C15.99 3.68 16.98 2.36 18 1 C19.32 1.33 20.64 1.66 22 2 C22 3.65 22 5.3 22 7 C18.23562305 9.43577332 14.83305537 9.23476404 10.4375 9.1875 C9.42913086 9.1865332 9.42913086 9.1865332 8.40039062 9.18554688 C5.33586829 9.1581579 2.9272839 8.9757613 0 8 C0 5.36 0 2.72 0 0 Z " fill="#2A202C" transform="translate(41,102)"/>
<path d="M0 0 C1.65 0 3.3 0 5 0 C5 8.58 5 17.16 5 26 C3.35 26 1.7 26 0 26 C0 17.42 0 8.84 0 0 Z " fill="#1F6163" transform="translate(34,75)"/>
<path d="M0 0 C0.33 0 0.66 0 1 0 C1 7.92 1 15.84 1 24 C-1.31 24.33 -3.62 24.66 -6 25 C-7.25248502 22.49502996 -7.11374406 20.79146726 -7.09765625 17.9921875 C-7.09443359 17.00605469 -7.09121094 16.01992187 -7.08789062 15.00390625 C-7.07951172 13.97136719 -7.07113281 12.93882813 -7.0625 11.875 C-7.05798828 10.83472656 -7.05347656 9.79445313 -7.04882812 8.72265625 C-7.03701952 6.14838038 -7.02055075 3.57421854 -7 1 C-6.01 1 -5.02 1 -4 1 C-4 8.26 -4 15.52 -4 23 C-2.68 23 -1.36 23 0 23 C0 15.41 0 7.82 0 0 Z " fill="#0A2C36" transform="translate(72,78)"/>
<path d="M0 0 C1.49249268 0.01571045 1.49249268 0.01571045 3.01513672 0.03173828 C4.6296875 0.04140625 4.6296875 0.04140625 6.27685547 0.05126953 C7.40478516 0.06802734 8.53271484 0.08478516 9.69482422 0.10205078 C11.39832031 0.11558594 11.39832031 0.11558594 13.13623047 0.12939453 C15.94763721 0.1530198 18.7586272 0.18596065 21.56982422 0.22705078 C21.56982422 1.21705078 21.56982422 2.20705078 21.56982422 3.22705078 C21.23982422 2.56705078 20.90982422 1.90705078 20.56982422 1.22705078 C18.25982422 1.55705078 15.94982422 1.88705078 13.56982422 2.22705078 C13.56982422 2.88705078 13.56982422 3.54705078 13.56982422 4.22705078 C12.32265625 4.30052734 12.32265625 4.30052734 11.05029297 4.37548828 C9.96361328 4.45025391 8.87693359 4.52501953 7.75732422 4.60205078 C6.67837891 4.67166016 5.59943359 4.74126953 4.48779297 4.81298828 C1.38356236 5.03900811 1.38356236 5.03900811 -1.43017578 7.22705078 C-1.43017578 6.56705078 -1.43017578 5.90705078 -1.43017578 5.22705078 C-3.08017578 5.55705078 -4.73017578 5.88705078 -6.43017578 6.22705078 C-3.68488166 0.34427767 -3.68488166 0.34427767 0 0 Z " fill="#06262F" transform="translate(154.43017578125,106.77294921875)"/>
<path d="M0 0 C1.32 0.33 2.64 0.66 4 1 C4 3.31 4 5.62 4 8 C3.01 8.495 3.01 8.495 2 9 C2.33 11.64 2.66 14.28 3 17 C0.69 17 -1.62 17 -4 17 C-4 13.37 -4 9.74 -4 6 C-3.34 6 -2.68 6 -2 6 C-2 4.68 -2 3.36 -2 2 C-1.34 2 -0.68 2 0 2 C0 1.34 0 0.68 0 0 Z " fill="#1F1C24" transform="translate(37,102)"/>
<path d="M0 0 C3.63 0 7.26 0 11 0 C11 0.33 11 0.66 11 1 C7.7 1 4.4 1 1 1 C1 9.58 1 18.16 1 27 C2.65 27 4.3 27 6 27 C6 26.01 6 25.02 6 24 C6.66 24 7.32 24 8 24 C8 25.32 8 26.64 8 28 C8.66 28 9.32 28 10 28 C9.67 28.99 9.34 29.98 9 31 C9 30.34 9 29.68 9 29 C8.01 29 7.02 29 6 29 C6 30.65 6 32.3 6 34 C5.01 34.495 5.01 34.495 4 35 C4 33.02 4 31.04 4 29 C-0.29 28.67 -4.58 28.34 -9 28 C-9 27.67 -9 27.34 -9 27 C-7.35 27 -5.7 27 -4 27 C-4 25.35 -4 23.7 -4 22 C-3.34 22.33 -2.68 22.66 -2 23 C-2 23.66 -2 24.32 -2 25 C-1.34 25 -0.68 25 0 25 C0 16.75 0 8.5 0 0 Z " fill="#0F2931" transform="translate(43,74)"/>
<path d="M0 0 C0.33 0 0.66 0 1 0 C1.33 3.96 1.66 7.92 2 12 C4.475 12.99 4.475 12.99 7 14 C6.01 15.32 5.02 16.64 4 18 C4.66 18 5.32 18 6 18 C6.33 18.66 6.66 19.32 7 20 C8.65 20 10.3 20 12 20 C11.67 21.98 11.34 23.96 11 26 C13.31 26.33 15.62 26.66 18 27 C18 27.66 18 28.32 18 29 C12.25 29.125 12.25 29.125 10 28 C10 26.35 10 24.7 10 23 C8.02 22.34 6.04 21.68 4 21 C4 20.34 4 19.68 4 19 C3.01 19.33 2.02 19.66 1 20 C1 19.34 1 18.68 1 18 C0.34 18 -0.32 18 -1 18 C-1.33 18.99 -1.66 19.98 -2 21 C-2.33 19.02 -2.66 17.04 -3 15 C-2.34 14.67 -1.68 14.34 -1 14 C-0.52998967 10.72444392 -0.52998967 10.72444392 -0.375 6.9375 C-0.30023438 5.64714844 -0.22546875 4.35679688 -0.1484375 3.02734375 C-0.09945312 2.02832031 -0.05046875 1.02929688 0 0 Z " fill="#192130" transform="translate(109,88)"/>
<path d="M0 0 C3.63 0.66 7.26 1.32 11 2 C11 3.98 11 5.96 11 8 C9.21128822 8.38885039 7.41887126 8.76069196 5.625 9.125 C4.62726563 9.33382812 3.62953125 9.54265625 2.6015625 9.7578125 C1.74304688 9.83773437 0.88453125 9.91765625 0 10 C-0.66 9.34 -1.32 8.68 -2 8 C-1.67 7.67 -1.34 7.34 -1 7 C-0.63239269 4.67182036 -0.29758419 2.3381615 0 0 Z " fill="#472E3B" transform="translate(81,101)"/>
<path d="M0 0 C0.33 0 0.66 0 1 0 C1 7.59 1 15.18 1 23 C-0.32 23 -1.64 23 -3 23 C-3 16.07 -3 9.14 -3 2 C-2.34 2 -1.68 2 -1 2 C-0.67 1.34 -0.34 0.68 0 0 Z " fill="#216767" transform="translate(24,78)"/>
<path d="M0 0 C0.66 0 1.32 0 2 0 C2.33 0.66 2.66 1.32 3 2 C3.66 2 4.32 2 5 2 C5 1.34 5 0.68 5 0 C7.875 -0.125 7.875 -0.125 11 0 C11.66 0.66 12.32 1.32 13 2 C12.9375 4 12.9375 4 12 6 C8.08594062 8.30238787 4.45280788 8.17461992 0 8 C0 5.36 0 2.72 0 0 Z " fill="#382939" transform="translate(66,103)"/>
<path d="M0 0 C3.96 0 7.92 0 12 0 C12 2.31 12 4.62 12 7 C8.04 7 4.08 7 0 7 C0 4.69 0 2.38 0 0 Z " fill="#2C212D" transform="translate(94,103)"/>
<path d="M0 0 C0.66 0.99 1.32 1.98 2 3 C1.01 3 0.02 3 -1 3 C-1.33 3.66 -1.66 4.32 -2 5 C-2.56074219 4.84273438 -3.12148437 4.68546875 -3.69921875 4.5234375 C-8.51425632 3.42799602 -13.69831891 2.83490126 -18.20703125 5.1171875 C-20.34270182 6.61277186 -20.34270182 6.61277186 -23 9 C-22.38144499 5.63390997 -21.90171981 4.8970398 -19.375 2.25 C-13.91354877 -1.45966499 -6.29225977 -0.91302439 0 0 Z " fill="#311D25" transform="translate(146,79)"/>
<path d="M0 0 C12.65840939 -0.93637549 12.65840939 -0.93637549 15.9140625 1.3359375 C16.79292833 2.43066511 17.65557212 3.53865047 18.5 4.66015625 C21.19545617 7.06781632 24.39081207 6.4804594 27.828125 6.30859375 C30.04195627 6.11108203 30.04195627 6.11108203 32 5 C32.495 5.495 32.495 5.495 33 6 C33.66 6 34.32 6 35 6 C35 7.32 35 8.64 35 10 C32.43275848 9.79787875 29.87492577 9.56450532 27.3125 9.3125 C26.59126953 9.25900391 25.87003906 9.20550781 25.12695312 9.15039062 C19.66443175 8.57670117 17.90462948 6.95468883 14 3 C10.43727296 2.18739692 10.43727296 2.18739692 6.6875 2.1875 C5.43324219 2.13980469 4.17898437 2.09210938 2.88671875 2.04296875 C1.93410156 2.02878906 0.98148438 2.01460938 0 2 C0 1.34 0 0.68 0 0 Z " fill="#2A5051" transform="translate(137,72)"/>
<path d="M0 0 C1.32 0 2.64 0 4 0 C4.33 0.66 4.66 1.32 5 2 C5.99 2.33 6.98 2.66 8 3 C8 2.01 8 1.02 8 0 C9.32 0 10.64 0 12 0 C12.25 2.3125 12.25 2.3125 12 5 C10.3125 6.875 10.3125 6.875 8 8 C5.4375 8 5.4375 8 3 7 C0 2.96551724 0 2.96551724 0 0 Z " fill="#1C6365" transform="translate(60,112)"/>
<path d="M0 0 C0.99 0.33 1.98 0.66 3 1 C3 7.93 3 14.86 3 22 C2.01 22 1.02 22 0 22 C0 14.74 0 7.48 0 0 Z " fill="#166765" transform="translate(61,78)"/>
<path d="M0 0 C0.99 0.33 1.98 0.66 3 1 C3.33 4.3 3.66 7.6 4 11 C4.99 11.33 5.98 11.66 7 12 C6.01 13.98 5.02 15.96 4 18 C1 16 1 16 0 14 C-0.07116382 11.62597499 -0.08409085 9.24999323 -0.0625 6.875 C-0.05347656 5.59367187 -0.04445312 4.31234375 -0.03515625 2.9921875 C-0.02355469 2.00476563 -0.01195312 1.01734375 0 0 Z " fill="#0D4045" transform="translate(49,79)"/>
<path d="M0 0 C1.32 0 2.64 0 4 0 C4 0.99 4 1.98 4 3 C5.32 3 6.64 3 8 3 C8 2.01 8 1.02 8 0 C9.32 0 10.64 0 12 0 C12 1.32 12 2.64 12 4 C11.34 4 10.68 4 10 4 C9.67 4.99 9.34 5.98 9 7 C6.36 7 3.72 7 1 7 C0.67 4.69 0.34 2.38 0 0 Z " fill="#1E6265" transform="translate(95,112)"/>
<path d="M0 0 C0.66 0.66 1.32 1.32 2 2 C3.31747324 2.69748583 4.64914193 3.36959957 6 4 C5.01 4 4.02 4 3 4 C3 11.26 3 18.52 3 26 C1.35 26 -0.3 26 -2 26 C-2.05785647 22.04172765 -2.09354717 18.0835633 -2.125 14.125 C-2.14175781 12.99707031 -2.15851562 11.86914062 -2.17578125 10.70703125 C-2.18222656 9.63066406 -2.18867187 8.55429688 -2.1953125 7.4453125 C-2.20578613 6.45031738 -2.21625977 5.45532227 -2.22705078 4.43017578 C-2 2 -2 2 0 0 Z M-1 3 C-1 10.26 -1 17.52 -1 25 C-0.01 25 0.98 25 2 25 C2 18.07 2 11.14 2 4 C1.01 3.67 0.02 3.34 -1 3 Z " fill="#1B5557" transform="translate(62,75)"/>
<path d="M0 0 C0.99 0.33 1.98 0.66 3 1 C2.67 2.32 2.34 3.64 2 5 C1.01 4.67 0.02 4.34 -1 4 C-4.95316529 3.69060823 -8.9111674 3.67623638 -12.875 3.625 C-13.96425781 3.58761719 -15.05351562 3.55023438 -16.17578125 3.51171875 C-22.61595028 3.29821985 -22.61595028 3.29821985 -27.95703125 6.50390625 C-28.63121094 7.32761719 -29.30539063 8.15132812 -30 9 C-32.45703125 9.48828125 -32.45703125 9.48828125 -34.8125 9.3125 C-35.60269531 9.26738281 -36.39289063 9.22226563 -37.20703125 9.17578125 C-37.79871094 9.11777344 -38.39039063 9.05976562 -39 9 C-39 8.67 -39 8.34 -39 8 C-37.07942708 7.90234375 -35.15885417 7.8046875 -33.23828125 7.70703125 C-30.73550725 7.14727955 -30.73550725 7.14727955 -29.02734375 4.49609375 C-24.26168288 0.56672949 -19.2419463 1.2567401 -13.25 1.25 C-10.963489 1.21700928 -8.67702215 1.18073723 -6.390625 1.140625 C-5.38032227 1.13579102 -4.37001953 1.13095703 -3.32910156 1.12597656 C-1.03953023 1.2621584 -1.03953023 1.2621584 0 0 Z " fill="#2D585D" transform="translate(177,104)"/>
<path d="M0 0 C1.65 0 3.3 0 5 0 C5.48929664 7.21712538 5.48929664 7.21712538 3.125 11 C1 13 1 13 -1 13 C-0.67 8.71 -0.34 4.42 0 0 Z " fill="#1F6064" transform="translate(76,112)"/>
<path d="M0 0 C0.66 0.33 1.32 0.66 2 1 C1.94008594 2.95918968 1.85132862 4.91751529 1.75 6.875 C1.68039063 8.51082031 1.68039063 8.51082031 1.609375 10.1796875 C1 13 1 13 -1.046875 14.3828125 C-1.69140625 14.58648437 -2.3359375 14.79015625 -3 15 C-2.67 13.35 -2.34 11.7 -2 10 C-4.31 9.34 -6.62 8.68 -9 8 C-9 8.66 -9 9.32 -9 10 C-9.66 10 -10.32 10 -11 10 C-11.33 10.66 -11.66 11.32 -12 12 C-12 10.35 -12 8.7 -12 7 C-7.9472484 6.01751476 -4.16138263 5.91840426 0 6 C0 4.02 0 2.04 0 0 Z " fill="#0E2932" transform="translate(80,95)"/>
<path d="M0 0 C1.65 0 3.3 0 5 0 C5.33 4.29 5.66 8.58 6 13 C1 10 1 10 0 8 C-0.13415472 5.3276379 -0.04318541 2.67749512 0 0 Z " fill="#1F5F63" transform="translate(51,112)"/>
<path d="M0 0 C0.99 0 1.98 0 3 0 C3.02578125 0.96421875 3.0515625 1.9284375 3.078125 2.921875 C3.13484375 4.18515625 3.1915625 5.4484375 3.25 6.75 C3.29640625 8.00296875 3.3428125 9.2559375 3.390625 10.546875 C4.07610799 14.43127859 4.83539852 15.71317119 8 18 C8.99 18 9.98 18 11 18 C11 19.65 11 21.3 11 23 C9.35 23 7.7 23 6 23 C6 21.68 6 20.36 6 19 C5.34 19 4.68 19 4 19 C1.99742132 15.63534351 1.66355008 12.81882805 1.4375 8.9375 C1.23948365 5.66820969 1.03869566 3.11608697 0 0 Z " fill="#216B69" transform="translate(45,78)"/>
<path d="M0 0 C0 2.97 0 5.94 0 9 C-2.97 8.505 -2.97 8.505 -6 8 C-6.33 5.36 -6.66 2.72 -7 0 C-2.25 -1.125 -2.25 -1.125 0 0 Z " fill="#16434C" transform="translate(49,111)"/>
<path d="M0 0 C1.258125 -0.020625 2.51625 -0.04125 3.8125 -0.0625 C4.52019531 -0.07410156 5.22789063 -0.08570312 5.95703125 -0.09765625 C8 0 8 0 11 1 C11 3.64 11 6.28 11 9 C9.35 9 7.7 9 6 9 C6.33 6.69 6.66 4.38 7 2 C3.73045798 2.56371414 2.17424117 3.49962266 0 6 C0 4.02 0 2.04 0 0 Z " fill="#231F2B" transform="translate(55,102)"/>
<path d="M0 0 C1.65322266 0.01740234 1.65322266 0.01740234 3.33984375 0.03515625 C4.99693359 0.04869141 4.99693359 0.04869141 6.6875 0.0625 C7.54214844 0.07410156 8.39679687 0.08570312 9.27734375 0.09765625 C9.27734375 0.42765625 9.27734375 0.75765625 9.27734375 1.09765625 C7.62734375 1.09765625 5.97734375 1.09765625 4.27734375 1.09765625 C4.27734375 3.40765625 4.27734375 5.71765625 4.27734375 8.09765625 C3.28734375 8.09765625 2.29734375 8.09765625 1.27734375 8.09765625 C1.27734375 6.11765625 1.27734375 4.13765625 1.27734375 2.09765625 C0.61734375 2.09765625 -0.04265625 2.09765625 -0.72265625 2.09765625 C-0.72265625 4.07765625 -0.72265625 6.05765625 -0.72265625 8.09765625 C-1.38265625 8.09765625 -2.04265625 8.09765625 -2.72265625 8.09765625 C-3.10328846 5.77157055 -3.4353557 3.43710361 -3.72265625 1.09765625 C-2.72265625 0.09765625 -2.72265625 0.09765625 0 0 Z " fill="#1A141B" transform="translate(20.72265625,101.90234375)"/>
<path d="M0 0 C1.2065625 0.0309375 1.2065625 0.0309375 2.4375 0.0625 C2.4375 2.7025 2.4375 5.3425 2.4375 8.0625 C0.4575 8.0625 -1.5225 8.0625 -3.5625 8.0625 C-3.60491723 5.72955225 -3.60342937 3.39547433 -3.5625 1.0625 C-2.5625 0.0625 -2.5625 0.0625 0 0 Z " fill="#1C5858" transform="translate(23.5625,110.9375)"/>
<path d="M0 0 C1.32 0.33 2.64 0.66 4 1 C3.67 2.98 3.34 4.96 3 7 C3.99 7 4.98 7 6 7 C6 4.69 6 2.38 6 0 C7.65 0 9.3 0 11 0 C10.01 0.33 9.02 0.66 8 1 C8 2.32 8 3.64 8 5 C8.99 5 9.98 5 11 5 C11 5.66 11 6.32 11 7 C10.01 7 9.02 7 8 7 C7.67 7.66 7.34 8.32 7 9 C4.03 8.505 4.03 8.505 1 8 C0.67 5.36 0.34 2.72 0 0 Z " fill="#593545" transform="translate(19,103)"/>
<path d="M0 0 C6.27 0 12.54 0 19 0 C19 0.66 19 1.32 19 2 C12.4 2.66 5.8 3.32 -1 4 C-0.67 2.68 -0.34 1.36 0 0 Z " fill="#071A25" transform="translate(150,97)"/>
<path d="M0 0 C2.35694954 0.09031574 4.71153582 0.24688128 7.0625 0.4375 C8.35285156 0.53933594 9.64320312 0.64117187 10.97265625 0.74609375 C12.47119141 0.87177734 12.47119141 0.87177734 14 1 C13.67 2.32 13.34 3.64 13 5 C13 4.01 13 3.02 13 2 C11.68 2 10.36 2 9 2 C9 2.99 9 3.98 9 5 C7.68 4.67 6.36 4.34 5 4 C5 3.34 5 2.68 5 2 C3.68 2 2.36 2 1 2 C1.99 4.31 2.98 6.62 4 9 C3.01 8.67 2.02 8.34 1 8 C0.67 7.34 0.34 6.68 0 6 C-0.99 6.495 -0.99 6.495 -2 7 C-2 6.01 -2 5.02 -2 4 C-1.34 4 -0.68 4 0 4 C-0.33 3.01 -0.66 2.02 -1 1 C-0.67 0.67 -0.34 0.34 0 0 Z " fill="#113843" transform="translate(59,110)"/>
<path d="M0 0 C8.25 0 16.5 0 25 0 C25 0.33 25 0.66 25 1 C21.7 1.33 18.4 1.66 15 2 C15 2.66 15 3.32 15 4 C14.01 4 13.02 4 12 4 C12 3.34 12 2.68 12 2 C10.33388095 1.957279 8.66617115 1.95936168 7 2 C6.67 2.33 6.34 2.66 6 3 C4.33382885 3.04063832 2.66611905 3.042721 1 3 C0.67 2.01 0.34 1.02 0 0 Z " fill="#01161F" transform="translate(151,86)"/>
<path d="M0 0 C1.65 0 3.3 0 5 0 C5.33 2.64 5.66 5.28 6 8 C3.69 8 1.38 8 -1 8 C-0.67 5.36 -0.34 2.72 0 0 Z " fill="#1E5B5E" transform="translate(34,111)"/>
<path d="M0 0 C2.0625 0.4375 2.0625 0.4375 4 1 C3.67 2.32 3.34 3.64 3 5 C1.68 5 0.36 5 -1 5 C-1 4.34 -1 3.68 -1 3 C-7.6 3 -14.2 3 -21 3 C-21 2.67 -21 2.34 -21 2 C-20.39937744 1.97494385 -19.79875488 1.9498877 -19.17993164 1.92407227 C-16.47388563 1.8084472 -13.76821717 1.68557064 -11.0625 1.5625 C-10.11697266 1.52318359 -9.17144531 1.48386719 -8.19726562 1.44335938 C-7.29814453 1.40146484 -6.39902344 1.35957031 -5.47265625 1.31640625 C-4.64000244 1.27974854 -3.80734863 1.24309082 -2.94946289 1.20532227 C-0.99661142 1.20632897 -0.99661142 1.20632897 0 0 Z " fill="#30545A" transform="translate(171,93)"/>
<path d="M0 0 C0.721875 0.103125 1.44375 0.20625 2.1875 0.3125 C0.8675 0.6425 -0.4525 0.9725 -1.8125 1.3125 C-1.85375 1.910625 -1.895 2.50875 -1.9375 3.125 C-2.8125 5.3125 -2.8125 5.3125 -5.75 7.0625 C-8.8125 8.3125 -8.8125 8.3125 -10.8125 8.3125 C-11.1425 8.9725 -11.4725 9.6325 -11.8125 10.3125 C-14.1225 9.6525 -16.4325 8.9925 -18.8125 8.3125 C-18.8125 7.9825 -18.8125 7.6525 -18.8125 7.3125 C-18.07644531 7.22613281 -17.34039062 7.13976562 -16.58203125 7.05078125 C-9.75885923 6.06831659 -5.6816295 0.63129217 0 0 Z " fill="#371923" transform="translate(149.8125,101.6875)"/>
<path d="M0 0 C2.64 0 5.28 0 8 0 C8.66 1.32 9.32 2.64 10 4 C6.7 4.33 3.4 4.66 0 5 C0 3.35 0 1.7 0 0 Z " fill="#151F2B" transform="translate(149,90)"/>
<path d="M0 0 C1.2375 0.495 1.2375 0.495 2.5 1 C8.08321971 2.59520563 13.33848359 2.4153791 19 1 C15.92902531 4.36344847 13.72358063 4.92997607 9.125 5.375 C5.45873514 5.36147135 5.04765812 5.0397151 2 2.5 C1.34 1.675 0.68 0.85 0 0 Z " fill="#A7414D" transform="translate(126,104)"/>
<path d="M0 0 C-0.52268466 2.76276177 -1.10869587 5.3260876 -2 8 C-3.32 8 -4.64 8 -6 8 C-6.33 6.02 -6.66 4.04 -7 2 C-4.35261084 0.5393715 -3.10551666 0 0 0 Z " fill="#CF414E" transform="translate(122,84)"/>
<path d="M0 0 C1.98 0 3.96 0 6 0 C6 2.31 6 4.62 6 7 C4.35 7 2.7 7 1 7 C0.67 4.69 0.34 2.38 0 0 Z " fill="#1E6064" transform="translate(85,112)"/>
<path d="M0 0 C-0.33 1.32 -0.66 2.64 -1 4 C-6.94 3.01 -6.94 3.01 -13 2 C-12.67 1.34 -12.34 0.68 -12 0 C-7.70057734 -0.90949326 -4.25063401 -1.15926382 0 0 Z " fill="#20494D" transform="translate(162,100)"/>
<path d="M0 0 C0.33 0 0.66 0 1 0 C1 4.62 1 9.24 1 14 C0.01 14.33 -0.98 14.66 -2 15 C-3.09644404 9.05542387 -3.41029848 5.32006564 0 0 Z " fill="#431A23" transform="translate(122,86)"/>
<path d="M0 0 C0.66 0.33 1.32 0.66 2 1 C2 1.66 2 2.32 2 3 C2.99 3.33 3.98 3.66 5 4 C3.68 4.99 2.36 5.98 1 7 C1 6.34 1 5.68 1 5 C-0.98 5.66 -2.96 6.32 -5 7 C-5 7.66 -5 8.32 -5 9 C-5.66 9 -6.32 9 -7 9 C-7 7.35 -7 5.7 -7 4 C-3.98968256 3.06576355 -3.13349732 2.95550089 0 4 C0 2.68 0 1.36 0 0 Z " fill="#A93D47" transform="translate(121,79)"/>
<path d="M0 0 C0.33 1.65 0.66 3.3 1 5 C-0.98 5 -2.96 5 -5 5 C-5 6.65 -5 8.3 -5 10 C-6.32 10 -7.64 10 -9 10 C-9 9.34 -9 8.68 -9 8 C-8.34 7.67 -7.68 7.34 -7 7 C-7 5.68 -7 4.36 -7 3 C-2.92857143 0 -2.92857143 0 0 0 Z " fill="#0F0F15" transform="translate(136,67)"/>
<path d="M0 0 C0.66 0 1.32 0 2 0 C2.33 0.66 2.66 1.32 3 2 C4.65 2 6.3 2 8 2 C7.67 3.98 7.34 5.96 7 8 C9.31 8.33 11.62 8.66 14 9 C14 9.66 14 10.32 14 11 C8.25 11.125 8.25 11.125 6 10 C6 8.35 6 6.7 6 5 C4.02 4.34 2.04 3.68 0 3 C0 2.01 0 1.02 0 0 Z " fill="#2A1E2C" transform="translate(113,106)"/>
<path d="M0 0 C1.98 0 3.96 0 6 0 C5.67 0.66 5.34 1.32 5 2 C4.95977609 4.3329866 4.95679753 6.66706666 5 9 C4.01 9 3.02 9 2 9 C1.34 6.03 0.68 3.06 0 0 Z " fill="#082431" transform="translate(38,110)"/>
<path d="M0 0 C2.0625 0.4375 2.0625 0.4375 4 1 C4.625 2.875 4.625 2.875 5 5 C4.34 5.66 3.68 6.32 3 7 C1.68 7 0.36 7 -1 7 C-1.04254356 5.00045254 -1.04080783 2.99958364 -1 1 C-0.67 0.67 -0.34 0.34 0 0 Z " fill="#5D364A" transform="translate(74,103)"/>
<path d="M0 0 C0.66 0 1.32 0 2 0 C2.66 1.32 3.32 2.64 4 4 C3.01 4.495 3.01 4.495 2 5 C2 6.32 2 7.64 2 9 C2.99 9 3.98 9 5 9 C5 9.99 5 10.98 5 12 C2.83125748 11.49396008 1.00032373 11.00016187 -1 10 C-0.67 8.02 -0.34 6.04 0 4 C-0.66 3.67 -1.32 3.34 -2 3 C-1.34 3 -0.68 3 0 3 C0 2.01 0 1.02 0 0 Z " fill="#AF414D" transform="translate(121,104)"/>
<path d="M0 0 C0.66 1.32 1.32 2.64 2 4 C0.13559425 5.86440575 -2.8824617 5.17374427 -5.375 5.1875 C-7.11910156 5.20876953 -7.11910156 5.20876953 -8.8984375 5.23046875 C-12 5 -12 5 -15 3 C-13.58456585 2.80341192 -12.16755969 2.61812454 -10.75 2.4375 C-9.96109375 2.33308594 -9.1721875 2.22867188 -8.359375 2.12109375 C-5.98009281 1.99897827 -4.2717127 2.34469826 -2 3 C-1.34 3 -0.68 3 0 3 C0 2.01 0 1.02 0 0 Z " fill="#041E26" transform="translate(163,100)"/>
<path d="M0 0 C1.98 0 3.96 0 6 0 C6 1.98 6 3.96 6 6 C4 6 2 6 0 6 C0 4.02 0 2.04 0 0 Z " fill="#6E3B4B" transform="translate(49,103)"/>
<path d="M0 0 C0.33 0 0.66 0 1 0 C1 6.93 1 13.86 1 21 C0.01 21 -0.98 21 -2 21 C-2 19.35 -2 17.7 -2 16 C-1.67 16 -1.34 16 -1 16 C-0.67 10.72 -0.34 5.44 0 0 Z " fill="#206A6A" transform="translate(63,79)"/>
<path d="M0 0 C0 0.33 0 0.66 0 1 C-0.66386719 1.17015625 -1.32773438 1.3403125 -2.01171875 1.515625 C-7.16995346 2.93131569 -11.05877597 4.1901501 -15 8 C-14.69025617 5.10905762 -13.95829554 3.95308249 -12 1.75 C-7.93075448 -0.62372655 -4.59948687 -0.36074407 0 0 Z " fill="#350A12" transform="translate(138,80)"/>
<path d="M0 0 C5.31637797 -0.50632171 7.82517803 0.75291624 12 4 C13.875 5.75 13.875 5.75 15 7 C14.67 7.99 14.34 8.98 14 10 C13.360625 9.071875 12.72125 8.14375 12.0625 7.1875 C8.82039741 3.22388903 4.83406415 2.20061724 0 1 C0 0.67 0 0.34 0 0 Z " fill="#C34857" transform="translate(134,82)"/>
<path d="M0 0 C2.0625 0.4375 2.0625 0.4375 4 1 C4 2.65 4 4.3 4 6 C2.35 6 0.7 6 -1 6 C-1.042721 4.33388095 -1.04063832 2.66617115 -1 1 C-0.67 0.67 -0.34 0.34 0 0 Z " fill="#643845" transform="translate(59,103)"/>
<path d="M0 0 C2.0625 0.4375 2.0625 0.4375 4 1 C4 1.99 4 2.98 4 4 C2.0625 4.5625 2.0625 4.5625 0 5 C-0.33 4.67 -0.66 4.34 -1 4 C-2.34747084 3.76924918 -3.70377565 3.58846937 -5.0625 3.4375 C-6.361875 3.293125 -7.66125 3.14875 -9 3 C-9 2.67 -9 2.34 -9 2 C-6.94921875 1.77213542 -4.8984375 1.54427083 -2.84765625 1.31640625 C-0.98859771 1.18113386 -0.98859771 1.18113386 0 0 Z " fill="#285054" transform="translate(158,87)"/>
<path d="M0 0 C1.65 0 3.3 0 5 0 C4.814375 0.598125 4.62875 1.19625 4.4375 1.8125 C3.77906313 4.16408762 3.77906313 4.16408762 5 7 C3.35 7 1.7 7 0 7 C0 4.69 0 2.38 0 0 Z " fill="#6B3A4E" transform="translate(94,103)"/>
<path d="M0 0 C2.64 0.33 5.28 0.66 8 1 C8 1.99 8 2.98 8 4 C5.36 4 2.72 4 0 4 C0 2.68 0 1.36 0 0 Z " fill="#1B2634" transform="translate(137,113)"/>
<path d="M0 0 C0.66 0.33 1.32 0.66 2 1 C2 3.31 2 5.62 2 8 C0.35 8 -1.3 8 -3 8 C-3 6.68 -3 5.36 -3 4 C-2.01 4.33 -1.02 4.66 0 5 C0 3.35 0 1.7 0 0 Z " fill="#0E3340" transform="translate(56,118)"/>
<path d="M0 0 C1.32 0 2.64 0 4 0 C4 1.98 4 3.96 4 6 C2.68 6 1.36 6 0 6 C0 4.02 0 2.04 0 0 Z " fill="#1D6665" transform="translate(44,112)"/>
<path d="M0 0 C2.31 0 4.62 0 7 0 C7 1.98 7 3.96 7 6 C5.02 6.99 5.02 6.99 3 8 C3.33 6.35 3.66 4.7 4 3 C2.68 2.01 1.36 1.02 0 0 Z " fill="#221E2B" transform="translate(74,102)"/>
<path d="M0 0 C0.33 0 0.66 0 1 0 C1 3.63 1 7.26 1 11 C0.01 11.495 0.01 11.495 -1 12 C-2.42857143 3.42857143 -2.42857143 3.42857143 0 0 Z " fill="#186965" transform="translate(105,88)"/>
<path d="M0 0 C1.65 0 3.3 0 5 0 C4.67 3.96 4.34 7.92 4 12 C3.67 12 3.34 12 3 12 C2.67 10.35 2.34 8.7 2 7 C1.67 7 1.34 7 1 7 C0.67 4.69 0.34 2.38 0 0 Z " fill="#226866" transform="translate(86,75)"/>
<path d="M0 0 C1.98 0 3.96 0 6 0 C6 1.65 6 3.3 6 5 C4.68 5 3.36 5 2 5 C1.34 3.35 0.68 1.7 0 0 Z " fill="#DA414B" transform="translate(130,112)"/>
<path d="M0 0 C2.97 0 5.94 0 9 0 C9 0.66 9 1.32 9 2 C5.91190305 3.76462683 4.76687864 4 1 4 C0.67 2.68 0.34 1.36 0 0 Z " fill="#12283B" transform="translate(120,116)"/>
<path d="M0 0 C0.33 0 0.66 0 1 0 C1.66 3.96 2.32 7.92 3 12 C2.34 12 1.68 12 1 12 C1 11.01 1 10.02 1 9 C0.34 9 -0.32 9 -1 9 C-1.33 8.01 -1.66 7.02 -2 6 C-1.34 6 -0.68 6 0 6 C0 4.02 0 2.04 0 0 Z " fill="#C74758" transform="translate(118,92)"/>
<path d="M0 0 C0.99 0 1.98 0 3 0 C3 1.65 3 3.3 3 5 C1.35 5 -0.3 5 -2 5 C-1.125 1.125 -1.125 1.125 0 0 Z " fill="#1F5F61" transform="translate(53,96)"/>
<path d="M0 0 C0.66 0 1.32 0 2 0 C2 0.66 2 1.32 2 2 C2.99 1.67 3.98 1.34 5 1 C5 2.65 5 4.3 5 6 C4.67 5.34 4.34 4.68 4 4 C3.34 4 2.68 4 2 4 C2 4.66 2 5.32 2 6 C1.34 6 0.68 6 0 6 C0 4.02 0 2.04 0 0 Z " fill="#754352" transform="translate(41,103)"/>
<path d="M0 0 C3.125 -0.1875 3.125 -0.1875 6 0 C4.515 1.485 4.515 1.485 3 3 C3.66 3.66 4.32 4.32 5 5 C3.68 5.33 2.36 5.66 1 6 C1 5.34 1 4.68 1 4 C0.01 3.67 -0.98 3.34 -2 3 C-1.34 2.01 -0.68 1.02 0 0 Z " fill="#195556" transform="translate(97,74)"/>
<path d="M0 0 C1.32 0 2.64 0 4 0 C4 1.65 4 3.3 4 5 C2.35 4.67 0.7 4.34 -1 4 C-0.67 2.68 -0.34 1.36 0 0 Z " fill="#D44045" transform="translate(132,73)"/>
<path d="M0 0 C1.32 0 2.64 0 4 0 C4 1.98 4 3.96 4 6 C2.68 6 1.36 6 0 6 C0.33 5.34 0.66 4.68 1 4 C0.60061233 1.90178785 0.60061233 1.90178785 0 0 Z " fill="#724055" transform="translate(102,103)"/>
<path d="M0 0 C0.33 0 0.66 0 1 0 C1 2.31 1 4.62 1 7 C2.65 7 4.3 7 6 7 C6 7.99 6 8.98 6 10 C4.02 9.34 2.04 8.68 0 8 C0 5.36 0 2.72 0 0 Z " fill="#29121F" transform="translate(110,92)"/>
<path d="M0 0 C0.33 0.99 0.66 1.98 1 3 C1.66 3 2.32 3 3 3 C3 4.32 3 5.64 3 7 C1.35 7 -0.3 7 -2 7 C-2 6.34 -2 5.68 -2 5 C-1.34 5 -0.68 5 0 5 C0 3.35 0 1.7 0 0 Z " fill="#361E2A" transform="translate(113,85)"/>
<path d="M0 0 C0.66 0.33 1.32 0.66 2 1 C0.9024777 3.99324263 0.32317108 4.84610901 -2.625 6.25 C-3.40875 6.4975 -4.1925 6.745 -5 7 C-3.70700306 4.11562221 -2.34058637 2.12780579 0 0 Z " fill="#AC3D45" transform="translate(128,83)"/>
<path d="M0 0 C2.475 0.495 2.475 0.495 5 1 C5 2.32 5 3.64 5 5 C4.01 5 3.02 5 2 5 C1.34 3.35 0.68 1.7 0 0 Z " fill="#D8454D" transform="translate(121,77)"/>
<path d="M0 0 C2.0625 0.4375 2.0625 0.4375 4 1 C0.68629 3.20914 -0.3446021 3.22481553 -4.1875 3.125 C-5.08855469 3.10695313 -5.98960937 3.08890625 -6.91796875 3.0703125 C-7.60503906 3.04710938 -8.29210937 3.02390625 -9 3 C-9 2.67 -9 2.34 -9 2 C-6.94921875 1.77213542 -4.8984375 1.54427083 -2.84765625 1.31640625 C-0.98859771 1.18113386 -0.98859771 1.18113386 0 0 Z " fill="#C64651" transform="translate(141,105)"/>
<path d="M0 0 C0.66 0 1.32 0 2 0 C2.33 0.66 2.66 1.32 3 2 C4.65 2 6.3 2 8 2 C7.67 2.99 7.34 3.98 7 5 C4.69 4.34 2.38 3.68 0 3 C0 2.01 0 1.02 0 0 Z " fill="#381E25" transform="translate(113,106)"/>
<path d="M0 0 C2.0625 0.4375 2.0625 0.4375 4 1 C4 1.66 4 2.32 4 3 C1 5 1 5 -1 6 C-1.042721 4.33388095 -1.04063832 2.66617115 -1 1 C-0.67 0.67 -0.34 0.34 0 0 Z " fill="#B64550" transform="translate(115,82)"/>
<path d="M0 0 C1.65 0 3.3 0 5 0 C5.33 0.66 5.66 1.32 6 2 C4.02 2.66 2.04 3.32 0 4 C0 2.68 0 1.36 0 0 Z " fill="#1C5F5D" transform="translate(64,74)"/>
<path d="M0 0 C1.98 0 3.96 0 6 0 C6 0.33 6 0.66 6 1 C4.35 1 2.7 1 1 1 C1 2.65 1 4.3 1 6 C-0.32 6 -1.64 6 -3 6 C-3 5.34 -3 4.68 -3 4 C-2.34 3.67 -1.68 3.34 -1 3 C-0.67 2.01 -0.34 1.02 0 0 Z " fill="#45121B" transform="translate(130,71)"/>
<path d="M0 0 C0.66 0.33 1.32 0.66 2 1 C1.67 2.65 1.34 4.3 1 6 C2.32 6.33 3.64 6.66 5 7 C2.625 7.625 2.625 7.625 0 8 C-0.66 7.34 -1.32 6.68 -2 6 C-1.34 4.02 -0.68 2.04 0 0 Z " fill="#2C2735" transform="translate(81,103)"/>
<path d="M0 0 C1.65 0 3.3 0 5 0 C3.69593116 2.01920337 2.36176581 4.01924973 1 6 C0.67 6 0.34 6 0 6 C0 4.02 0 2.04 0 0 Z " fill="#1F1722" transform="translate(55,102)"/>
<path d="M0 0 C2.97 0.495 2.97 0.495 6 1 C4.515 2.485 4.515 2.485 3 4 C1.68 3.34 0.36 2.68 -1 2 C-0.67 1.34 -0.34 0.68 0 0 Z " fill="#CE414B" transform="translate(130,82)"/>
<path d="M0 0 C1.98 0 3.96 0 6 0 C5.67 0.99 5.34 1.98 5 3 C3.35 3 1.7 3 0 3 C0 2.01 0 1.02 0 0 Z " fill="#18121E" transform="translate(137,74)"/>
</svg>
